# xmcd
# Track frame offsets:
# 200
# 14890
# 34453
# 49505
# 64909
# 78544
# 99603
# 113895
# 129989
# 145994
#
# Disc length: 2176 seconds
# Revision: 0
# Processed by: cddbd v1.4PL0 Copyright (c) Steve Scherf et al.
# Submitted via: VisiTrax 2.9.5.181 - For more info visit www.synapsa.com
#
DISCID=90087e0a
DTITLE=Wilson Meadows - Memories
DYEAR=1997
DGENRE=
TTITLE0=Just Can't Do Without You
TTITLE1=I Promise
TTITLE2=Oh Girl
TTITLE3=That's Still My Love
TTITLE4=When You're Gettin' My Love
TTITLE5=Where Will This Leave Me
TTITLE6=Memories Keep Hangin' On
TTITLE7=Just Like I Promised
TTITLE8=Stroll It
TTITLE9=Let's Cut Out This Game
EXTD=Ichiban Records - ICH - 1505-02
EXTT0=
EXTT1=
EXTT2=
EXTT3=
EXTT4=
EXTT5=
EXTT6=
EXTT7=
EXTT8=
EXTT9=
PLAYORDER=
